<svg id="how_to_reg_black_24dp" xmlns="http://www.w3.org/2000/svg" width="20.212" height="20.212" viewBox="0 0 20.212 20.212">
  <path id="Path_11498" data-name="Path 11498" d="M0,0H20.212V20.212H0Z" fill="none" fill-rule="evenodd"/>
  <g id="Group_3350" data-name="Group 3350" transform="translate(2.526 3.369)">
    <path id="Path_11499" data-name="Path 11499" d="M8.053,14.948l2.526-2.476a7.866,7.866,0,0,0-.842-.051C7.489,12.422,3,13.55,3,15.79v1.684h7.579Zm1.684-4.211A3.369,3.369,0,1,0,6.369,7.369a3.368,3.368,0,0,0,3.369,3.369" transform="translate(-3 -4)" fill="#fff" fill-rule="evenodd"/>
    <path id="Path_11500" data-name="Path 11500" d="M14.922,19.237,12,16.29,13.179,15.1l1.743,1.752,4.32-4.354,1.179,1.187Z" transform="translate(-4.421 -5.342)" fill="#fff" fill-rule="evenodd"/>
  </g>
</svg>
