<svg xmlns="http://www.w3.org/2000/svg" width="31.742" height="31.742" viewBox="0 0 31.742 31.742">
  <g id="Group_4030" data-name="Group 4030" transform="translate(-1706.259 -33.129)">
    <path id="Path_10" data-name="Path 10" d="M114.438,1028.848v15.871H98.567a15.871,15.871,0,1,1,15.871-15.871Z" transform="translate(1623.563 -979.848)" fill="#6292a5"/>
    <path id="Icon_awesome-instagram" data-name="Icon awesome-instagram" d="M8.464,6.362A4.341,4.341,0,1,0,12.805,10.7,4.334,4.334,0,0,0,8.464,6.362Zm0,7.163A2.822,2.822,0,1,1,11.286,10.7,2.827,2.827,0,0,1,8.464,13.526ZM14,6.185a1.013,1.013,0,1,1-1.013-1.013A1.01,1.01,0,0,1,14,6.185ZM16.87,7.212A5.011,5.011,0,0,0,15.5,3.665,5.044,5.044,0,0,0,11.955,2.3c-1.4-.079-5.588-.079-6.986,0A5.036,5.036,0,0,0,1.422,3.661,5.027,5.027,0,0,0,.054,7.209c-.079,1.4-.079,5.588,0,6.986a5.011,5.011,0,0,0,1.368,3.548A5.05,5.05,0,0,0,4.97,19.11c1.4.079,5.588.079,6.986,0A5.011,5.011,0,0,0,15.5,17.742a5.044,5.044,0,0,0,1.368-3.548c.079-1.4.079-5.584,0-6.982Zm-1.806,8.482A2.857,2.857,0,0,1,13.455,17.3c-1.115.442-3.759.34-4.991.34s-3.88.1-4.991-.34a2.857,2.857,0,0,1-1.609-1.609c-.442-1.115-.34-3.759-.34-4.991s-.1-3.88.34-4.991A2.857,2.857,0,0,1,3.473,4.1c1.115-.442,3.759-.34,4.991-.34s3.88-.1,4.991.34a2.857,2.857,0,0,1,1.609,1.609c.442,1.115.34,3.759.34,4.991S15.507,14.583,15.065,15.694Z" transform="translate(1714.666 38.297)" fill="#fff"/>
  </g>
</svg>
