<svg xmlns="http://www.w3.org/2000/svg" width="31.742" height="31.742" viewBox="0 0 31.742 31.742">
  <g id="Group_4031" data-name="Group 4031" transform="translate(-1748.258 -33.129)">
    <g id="Group_2" data-name="Group 2" transform="translate(1748.258 33.129)">
      <path id="Path_10" data-name="Path 10" d="M114.438,1028.848v15.871H98.567a15.871,15.871,0,1,1,15.871-15.871Z" transform="translate(-82.696 -1012.977)" fill="#6292a5"/>
    </g>
    <path id="Icon_awesome-linkedin-in" data-name="Icon awesome-linkedin-in" d="M3.461,15.464H.255V5.14H3.461ZM1.857,3.732A1.865,1.865,0,1,1,3.713,1.857,1.872,1.872,0,0,1,1.857,3.732Zm13.6,11.732h-3.2V10.438c0-1.2-.024-2.734-1.667-2.734-1.667,0-1.922,1.3-1.922,2.647v5.112h-3.2V5.14H8.544V6.548h.045a3.369,3.369,0,0,1,3.033-1.667c3.245,0,3.841,2.137,3.841,4.912v5.671Z" transform="translate(1757.93 40.242)" fill="#fff"/>
  </g>
</svg>
