<svg xmlns="http://www.w3.org/2000/svg" xmlns:xlink="http://www.w3.org/1999/xlink" width="466.085" height="298.253" viewBox="0 0 466.085 298.253">
  <defs>
    <filter id="Path_10" x="0" y="0" width="466.085" height="298.253" filterUnits="userSpaceOnUse">
      <feOffset dy="3" input="SourceAlpha"/>
      <feGaussianBlur stdDeviation="25" result="blur"/>
      <feFlood flood-opacity="0.078"/>
      <feComposite operator="in" in2="blur"/>
      <feComposite in="SourceGraphic"/>
    </filter>
  </defs>
  <g id="Group_3571" data-name="Group 3571" transform="translate(75.5 72.5)">
    <g id="Group_3567" data-name="Group 3567" transform="translate(0)">
      <g id="Group_3415" data-name="Group 3415">
        <g transform="matrix(1, 0, 0, 1, -75.5, -72.5)" filter="url(#Path_10)">
          <path id="Path_10-2" data-name="Path 10" d="M397.781,1086.6v73.627H156.323a73.627,73.627,0,1,1,0-147.253h168.2A73.6,73.6,0,0,1,397.781,1086.6Z" transform="translate(-7.2 -940.48)" fill="#fff" stroke="#e6e6e2" stroke-width="1"/>
        </g>
      </g>
    </g>
    <g id="Group_3566" data-name="Group 3566" transform="translate(97.063 44.269)">
      <path id="Path_1" data-name="Path 1" d="M521.521,291.284a1.617,1.617,0,0,1-.368,1.049,1.262,1.262,0,0,1-.988.47h-1.383a4.68,4.68,0,0,0-2.357.661,4.99,4.99,0,0,0-1.847,1.874,5.865,5.865,0,0,0-.708,2.97v9.844a1.239,1.239,0,0,1-.491.968,1.733,1.733,0,0,1-1.137.4,1.671,1.671,0,0,1-1.1-.4,1.242,1.242,0,0,1-.49-.968V291.284a1.122,1.122,0,0,1,.518-.961,1.951,1.951,0,0,1,2.132.008,1.142,1.142,0,0,1,.491.954v.906a7.7,7.7,0,0,1,.647-.694,6.539,6.539,0,0,1,1.874-1.24,6.109,6.109,0,0,1,2.473-.484h1.383a1.279,1.279,0,0,1,.982.443,1.614,1.614,0,0,1,.375,1.07Z" transform="translate(-376.15 -266.058)" fill="#4e8094"/>
      <path id="Path_2" data-name="Path 2" d="M497.072,291.284a1.616,1.616,0,0,1-.368,1.049,1.263,1.263,0,0,1-.988.47h-1.383a4.683,4.683,0,0,0-2.357.661,5.032,5.032,0,0,0-1.846,1.874,5.865,5.865,0,0,0-.709,2.97v9.844a1.243,1.243,0,0,1-.49.968,1.738,1.738,0,0,1-1.138.4,1.672,1.672,0,0,1-1.1-.4,1.241,1.241,0,0,1-.49-.968V291.284a1.122,1.122,0,0,1,.518-.961,1.952,1.952,0,0,1,2.132.008,1.124,1.124,0,0,1,.49.954v.906a7.619,7.619,0,0,1,.648-.694,6.535,6.535,0,0,1,1.873-1.24,6.113,6.113,0,0,1,2.473-.484h1.383a1.279,1.279,0,0,1,.982.443,1.568,1.568,0,0,1,.375,1.07Z" transform="translate(-368.509 -266.058)" fill="#4e8094"/>
      <path id="Path_3" data-name="Path 3" d="M468.668,305.578a1.434,1.434,0,0,0-1.914.171,6.263,6.263,0,0,1-1.3.755,5.811,5.811,0,0,1-2.33.375,6.342,6.342,0,0,1-4.115-1.321,4.3,4.3,0,0,1-1.587-3.542v-1.152h8.639a8.059,8.059,0,0,0,1.71-.171,2.443,2.443,0,0,0,1.478-.933,3.872,3.872,0,0,0,.586-2.412,7.223,7.223,0,0,0-1.084-3.917,7.932,7.932,0,0,0-10.6-2.623,8.1,8.1,0,0,0-2.868,2.786,7.229,7.229,0,0,0-1.083,3.836V301.9a7.548,7.548,0,0,0,1.144,4.143,7.793,7.793,0,0,0,3.141,2.759,10.11,10.11,0,0,0,4.564.995,10.322,10.322,0,0,0,3.278-.477,6.36,6.36,0,0,0,2.173-1.158,1.956,1.956,0,0,0,.817-1.322,1.484,1.484,0,0,0-.17-.661,1.987,1.987,0,0,0-.477-.6Zm-6.615-13.013a4.44,4.44,0,0,1,2.426.668,4.653,4.653,0,0,1,1.635,1.758,4.836,4.836,0,0,1,.579,2.282c0,.3-.048.688-.252.824a2.914,2.914,0,0,1-1.411.2h-7.609v-1.192a4.292,4.292,0,0,1,.626-2.282,4.753,4.753,0,0,1,1.69-1.642,4.558,4.558,0,0,1,2.315-.62Z" transform="translate(-358.507 -266.058)" fill="#4e8094"/>
      <path id="Path_4" data-name="Path 4" d="M442.623,303a1.509,1.509,0,0,1,.375,1.028,1.59,1.59,0,0,1-.368,1.043,1.365,1.365,0,0,1-1.1.476h-1.11a7.327,7.327,0,0,1-4.885-1.471,5.927,5.927,0,0,1-1.737-4.715V278.34a1.113,1.113,0,0,1,.565-.967,1.957,1.957,0,0,1,2.113,0,1.136,1.136,0,0,1,.544.967v7.7h4.831a1.083,1.083,0,0,1,.892.45,1.551,1.551,0,0,1,.3.947,1.59,1.59,0,0,1-.3.954,1.069,1.069,0,0,1-.892.443h-4.831v10.526a3.4,3.4,0,0,0,.729,2.5,3.969,3.969,0,0,0,2.671.688h1.11a1.373,1.373,0,0,1,1.1.45Z" transform="translate(-352.129 -262.086)" fill="#4e8094"/>
      <path id="Path_5" data-name="Path 5" d="M420.277,291.284a1.622,1.622,0,0,1-.374,1.049,1.25,1.25,0,0,1-.982.47h-1.383a4.706,4.706,0,0,0-2.364.661,5.024,5.024,0,0,0-1.84,1.874,5.865,5.865,0,0,0-.708,2.97v9.844a1.263,1.263,0,0,1-.491.968,1.739,1.739,0,0,1-1.144.4,1.654,1.654,0,0,1-1.1-.4,1.231,1.231,0,0,1-.49-.968V291.284a1.122,1.122,0,0,1,.518-.961,1.951,1.951,0,0,1,2.132.008,1.141,1.141,0,0,1,.492.954v.906a6.725,6.725,0,0,1,.646-.694,6.54,6.54,0,0,1,1.874-1.24,6.109,6.109,0,0,1,2.473-.484h1.383a1.264,1.264,0,0,1,.975.443,1.572,1.572,0,0,1,.381,1.07Z" transform="translate(-344.506 -266.058)" fill="#4e8094"/>
      <path id="Path_6" data-name="Path 6" d="M391.41,293.921a6.569,6.569,0,0,0-2.378-3,7.6,7.6,0,0,0-4.408-1.151,10.911,10.911,0,0,0-2.548.307,8.286,8.286,0,0,0-2.146.79c-.648.368-.981.791-.981,1.254a2.113,2.113,0,0,0,.327,1.083,1.162,1.162,0,0,0,1.028.64,1.864,1.864,0,0,0,.967-.354,6.637,6.637,0,0,1,1.233-.545,6.8,6.8,0,0,1,2.044-.259,3.967,3.967,0,0,1,2.548.742,4.331,4.331,0,0,1,1.369,1.934,7.006,7.006,0,0,1,.437,2.425v.634h-1.7a23.25,23.25,0,0,0-4.891.463,6.737,6.737,0,0,0-3.407,1.723,4.906,4.906,0,0,0-1.267,3.6,5.154,5.154,0,0,0,1.71,4.217,6.163,6.163,0,0,0,4.006,1.369,6.612,6.612,0,0,0,3.665-1.008,13.61,13.61,0,0,0,2-1.587v.953a1.242,1.242,0,0,0,.47.989,1.589,1.589,0,0,0,1.042.375,1.681,1.681,0,0,0,1.145-.382,1.276,1.276,0,0,0,.443-.982V297.79a10.478,10.478,0,0,0-.715-3.87Zm-7.419,13.033a3.546,3.546,0,0,1-2.235-.723,2.689,2.689,0,0,1-.893-2.262,2.267,2.267,0,0,1,.879-2.01,5.448,5.448,0,0,1,2.473-.879,23.924,23.924,0,0,1,3.344-.218H388.9v2.228a2.773,2.773,0,0,1-.7,1.655,6.43,6.43,0,0,1-1.874,1.574,4.644,4.644,0,0,1-2.336.634Z" transform="translate(-334.579 -266.058)" fill="#4e8094"/>
      <path id="Path_7" data-name="Path 7" d="M321.456,278.527h0a6.255,6.255,0,0,0-6.353,6.147v.005a6.244,6.244,0,0,1,6.341-6.135h.012v-.017Zm6.737-23.251H315.1v12.3h13.09a5.479,5.479,0,1,1,0,10.952h3.927a18.642,18.642,0,0,1,11.606,4h0a17.318,17.318,0,0,0,2.821-9.477c0-9.814-8.214-17.775-18.354-17.775" transform="translate(-315.032 -255.276)" fill="#ffc700"/>
      <path id="Path_8" data-name="Path 8" d="M315,296.941v.006a6.243,6.243,0,0,0,6.341,6.141h.012A6.256,6.256,0,0,1,315,296.941m28.621-2.152h0a18.482,18.482,0,0,1-15.532,8.3h3.927a5.479,5.479,0,1,1,0,10.953H315v12.3h17.016c10.14,0,18.354-7.955,18.354-17.776a17.55,17.55,0,0,0-6.749-13.775" transform="translate(-315 -267.626)" fill="#4e8094"/>
      <path id="Path_9" data-name="Path 9" d="M332.119,289.1H321.456v.017h-.012a6.145,6.145,0,1,0,.012,12.283h6.737a18.483,18.483,0,0,0,15.532-8.3h0a18.642,18.642,0,0,0-11.606-4" transform="translate(-315.032 -265.847)" fill="#f57425"/>
    </g>
  </g>
</svg>
